{
  "accessors": [
    {
      "bufferView": 2,
      "componentType": 5126,
      "count": 4873,
      "max": [
        2400.39453125,
        3600.00048828125,
        21900.0
      ],
      "min": [
        -4800.00048828125,
        -3600.000732421875,
        -9.56058720475994e-05
      ],
      "type": "VEC3"
    },
    {
      "bufferView": 2,
      "byteOffset": 58476,
      "componentType": 5126,
      "count": 4873,
      "max": [
        1.0,
        1.0,
        1.0
      ],
      "min": [
        -1.0,
        -1.0,
        -1.0
      ],
      "type": "VEC3"
    },
    {
      "bufferView": 3,
      "componentType": 5126,
      "count": 4873,
      "max": [
        1.0,
        1.0,
        0.8439899682998657,
        1.0
      ],
      "min": [
        -1.0,
        -1.0,
        -1.0,
        -1.0
      ],
      "type": "VEC4"
    },
    {
      "bufferView": 1,
      "componentType": 5126,
      "count": 4873,
      "max": [
        0.9984303712844849,
        0.9988284111022949
      ],
      "min": [
        0.0004054192395415157,
        0.001633582403883338
      ],
      "type": "VEC2"
    },
    {
      "bufferView": 0,
      "componentType": 5125,
      "count": 5922,
      "type": "SCALAR"
    }
  ],
  "asset": {
    "extras": {
      "author": "alecsvaldez (https://sketchfab.com/alexvzzz)",
      "license": "CC-BY-4.0 (http://creativecommons.org/licenses/by/4.0/)",
      "source": "https://sketchfab.com/3d-models/torre-mayor-cdmx-480185c3c7404071bd0e7b83c53fb2ce",
      "title": "Torre Mayor - CDMX"
    },
    "generator": "Sketchfab-12.67.0",
    "version": "2.0"
  },
  "bufferViews": [
    {
      "buffer": 0,
      "byteLength": 23688,
      "name": "floatBufferViews",
      "target": 34963
    },
    {
      "buffer": 0,
      "byteLength": 38984,
      "byteOffset": 23688,
      "byteStride": 8,
      "name": "floatBufferViews",
      "target": 34962
    },
    {
      "buffer": 0,
      "byteLength": 116952,
      "byteOffset": 62672,
      "byteStride": 12,
      "name": "floatBufferViews",
      "target": 34962
    },
    {
      "buffer": 0,
      "byteLength": 77968,
      "byteOffset": 179624,
      "byteStride": 16,
      "name": "floatBufferViews",
      "target": 34962
    }
  ],
  "buffers": [
    {
      "byteLength": 257592,
      "uri": "scene.bin"
    }
  ],
  "extensionsRequired": [
    "KHR_materials_pbrSpecularGlossiness"
  ],
  "extensionsUsed": [
    "KHR_materials_pbrSpecularGlossiness"
  ],
  "images": [
    {
      "uri": "textures/01_-_Default_diffuse.png"
    },
    {
      "uri": "textures/01_-_Default_specularGlossiness.png"
    },
    {
      "uri": "textures/01_-_Default_normal.png"
    }
  ],
  "materials": [
    {
      "doubleSided": true,
      "extensions": {
        "KHR_materials_pbrSpecularGlossiness": {
          "diffuseFactor": [
            1.0,
            1.0,
            1.0,
            1.0
          ],
          "diffuseTexture": {
            "index": 0
          },
          "glossinessFactor": 0.8929713596497552,
          "specularFactor": [
            0.17195489727547442,
            0.17195489727547442,
            0.17195489727547442
          ],
          "specularGlossinessTexture": {
            "index": 1
          }
        }
      },
      "name": "01_-_Default",
      "normalTexture": {
        "index": 2,
        "scale": 0.38476095799208365
      }
    }
  ],
  "meshes": [
    {
      "name": "Box001_01 - Default_0",
      "primitives": [
        {
          "attributes": {
            "NORMAL": 1,
            "POSITION": 0,
            "TANGENT": 2,
            "TEXCOORD_0": 3
          },
          "indices": 4,
          "material": 0,
          "mode": 4
        }
      ]
    }
  ],
  "nodes": [
    {
      "children": [
        1
      ],
      "matrix": [
        1.0,
        0.0,
        0.0,
        0.0,
        0.0,
        2.220446049250313e-16,
        -1.0,
        0.0,
        0.0,
        1.0,
        2.220446049250313e-16,
        0.0,
        0.0,
        0.0,
        0.0,
        1.0
      ],
      "name": "Sketchfab_model"
    },
    {
      "children": [
        2
      ],
      "matrix": [
        1.0,
        0.0,
        0.0,
        0.0,
        0.0,
        0.0,
        1.0,
        0.0,
        0.0,
        -1.0,
        0.0,
        0.0,
        0.0,
        0.0,
        0.0,
        1.0
      ],
      "name": "ce64cfac98f34323ad0130b1f4405a85.fbx"
    },
    {
      "children": [
        3
      ],
      "name": "RootNode"
    },
    {
      "children": [
        4
      ],
      "matrix": [
        4.3711387731626417e-08,
        5.551115123125783e-17,
        0.9999999999999993,
        0.0,
        0.9999999999999993,
        0.0,
        -4.371138789815987e-08,
        0.0,
        -5.551115123125783e-17,
        1.0000000000000002,
        -2.220446049250313e-16,
        0.0,
        0.0,
        0.0,
        0.0,
        1.0
      ],
      "name": "Box001"
    },
    {
      "children": [
        5
      ],
      "matrix": [
        6.123233995736766e-17,
        1.0,
        0.0,
        0.0,
        -0.9999999999999929,
        6.123233995736723e-17,
        -1.1920930681596478e-07,
        0.0,
        -1.1920930681596478e-07,
        7.299464801037301e-24,
        0.9999999999999929,
        0.0,
        -3600.0,
        4800.0,
        -0.000244140625,
        1.0
      ],
      "name": "Object_4"
    },
    {
      "mesh": 0,
      "name": "Box001_01 - Default_0"
    }
  ],
  "samplers": [
    {
      "magFilter": 9729,
      "minFilter": 9987,
      "wrapS": 10497,
      "wrapT": 10497
    }
  ],
  "scene": 0,
  "scenes": [
    {
      "name": "Sketchfab_Scene",
      "nodes": [
        0
      ]
    }
  ],
  "textures": [
    {
      "sampler": 0,
      "source": 0
    },
    {
      "sampler": 0,
      "source": 1
    },
    {
      "sampler": 0,
      "source": 2
    }
  ]
}
