{
  "accessors": [
    {
      "bufferView": 2,
      "componentType": 5126,
      "count": 2251,
      "max": [485.0144958496094, 95.38780975341797, 176.4517364501953],
      "min": [28.50234031677246, -117.28009033203125, -1.4969786405563354],
      "type": "VEC3"
    },
    {
      "bufferView": 2,
      "byteOffset": 27012,
      "componentType": 5126,
      "count": 2251,
      "max": [1.0, 1.0, 1.0],
      "min": [-1.0, -1.0, -1.0],
      "type": "VEC3"
    },
    {
      "bufferView": 3,
      "componentType": 5126,
      "count": 2251,
      "max": [1.0, 1.0, 1.0, 1.0],
      "min": [-1.0, -1.0, -1.0, 1.0],
      "type": "VEC4"
    },
    {
      "bufferView": 1,
      "componentType": 5126,
      "count": 2251,
      "max": [0.6666669845581055, 1.0],
      "min": [0.0, 0.0],
      "type": "VEC2"
    },
    {
      "bufferView": 0,
      "componentType": 5125,
      "count": 7092,
      "type": "SCALAR"
    },
    {
      "bufferView": 2,
      "byteOffset": 54024,
      "componentType": 5126,
      "count": 2251,
      "max": [-22.8031005859375, 95.38780975341797, 176.4517364501953],
      "min": [-479.31524658203125, -117.28009033203125, -1.4969786405563354],
      "type": "VEC3"
    },
    {
      "bufferView": 2,
      "byteOffset": 81036,
      "componentType": 5126,
      "count": 2251,
      "max": [1.0, 1.0, 1.0],
      "min": [-1.0, -1.0, -1.0],
      "type": "VEC3"
    },
    {
      "bufferView": 1,
      "byteOffset": 18008,
      "componentType": 5126,
      "count": 2251,
      "max": [0.6666669845581055, 1.0],
      "min": [0.0, 0.0],
      "type": "VEC2"
    },
    {
      "bufferView": 0,
      "byteOffset": 28368,
      "componentType": 5125,
      "count": 7092,
      "type": "SCALAR"
    },
    {
      "bufferView": 2,
      "byteOffset": 108048,
      "componentType": 5126,
      "count": 984,
      "max": [-125.61746978759766, -73.59037780761719, 173.16131591796875],
      "min": [-430.8861083984375, -123.76759338378906, 0.6157380938529968],
      "type": "VEC3"
    },
    {
      "bufferView": 2,
      "byteOffset": 119856,
      "componentType": 5126,
      "count": 984,
      "max": [1.0, 1.0, 1.0],
      "min": [-1.0, -1.0, -1.0],
      "type": "VEC3"
    },
    {
      "bufferView": 1,
      "byteOffset": 36016,
      "componentType": 5126,
      "count": 984,
      "max": [0.6666669845581055, 1.0],
      "min": [0.0, 0.0],
      "type": "VEC2"
    },
    {
      "bufferView": 0,
      "byteOffset": 56736,
      "componentType": 5125,
      "count": 2736,
      "type": "SCALAR"
    },
    {
      "bufferView": 2,
      "byteOffset": 131664,
      "componentType": 5126,
      "count": 984,
      "max": [382.2001037597656, -73.59037780761719, 173.16131591796875],
      "min": [76.93146514892578, -123.76759338378906, 0.6157380938529968],
      "type": "VEC3"
    },
    {
      "bufferView": 2,
      "byteOffset": 143472,
      "componentType": 5126,
      "count": 984,
      "max": [1.0, 1.0, 1.0],
      "min": [-1.0, -1.0, -1.0],
      "type": "VEC3"
    },
    {
      "bufferView": 3,
      "byteOffset": 36016,
      "componentType": 5126,
      "count": 984,
      "max": [1.0, 1.0, 1.0, 1.0],
      "min": [-1.0, -1.0, -1.0, 1.0],
      "type": "VEC4"
    },
    {
      "bufferView": 1,
      "byteOffset": 43888,
      "componentType": 5126,
      "count": 984,
      "max": [0.6666669845581055, 1.0],
      "min": [0.0, 0.0],
      "type": "VEC2"
    },
    {
      "bufferView": 0,
      "byteOffset": 67680,
      "componentType": 5125,
      "count": 2736,
      "type": "SCALAR"
    },
    {
      "bufferView": 2,
      "byteOffset": 155280,
      "componentType": 5126,
      "count": 244,
      "max": [385.0083923339844, -82.44120788574219, 78.64630126953125],
      "min": [-421.8786926269531, -86.00716400146484, -1.3386240005493164],
      "type": "VEC3"
    },
    {
      "bufferView": 2,
      "byteOffset": 158208,
      "componentType": 5126,
      "count": 244,
      "max": [0.0, -0.9999936819076538, 0.0029688237700611353],
      "min": [-0.001968798926100135, -1.0, -0.002781323855742812],
      "type": "VEC3"
    },
    {
      "bufferView": 1,
      "byteOffset": 51760,
      "componentType": 5126,
      "count": 244,
      "max": [0.7848960161209106, 0.4569650888442993],
      "min": [0.1700569987297058, 0.21569204330444336],
      "type": "VEC2"
    },
    {
      "bufferView": 0,
      "byteOffset": 78624,
      "componentType": 5125,
      "count": 768,
      "type": "SCALAR"
    }
  ],
  "asset": {
    "extras": {
      "author": "daftvid (https://sketchfab.com/daftvid)",
      "license": "CC-BY-4.0 (http://creativecommons.org/licenses/by/4.0/)",
      "source": "https://sketchfab.com/3d-models/mexican-oxxo-07f02fc1feee42e380a528f75c44613b",
      "title": "Mexican Oxxo"
    },
    "generator": "Sketchfab-12.68.0",
    "version": "2.0"
  },
  "bufferViews": [
    {
      "buffer": 0,
      "byteLength": 81696,
      "name": "floatBufferViews",
      "target": 34963
    },
    {
      "buffer": 0,
      "byteLength": 53712,
      "byteOffset": 81696,
      "byteStride": 8,
      "name": "floatBufferViews",
      "target": 34962
    },
    {
      "buffer": 0,
      "byteLength": 161136,
      "byteOffset": 135408,
      "byteStride": 12,
      "name": "floatBufferViews",
      "target": 34962
    },
    {
      "buffer": 0,
      "byteLength": 51760,
      "byteOffset": 296544,
      "byteStride": 16,
      "name": "floatBufferViews",
      "target": 34962
    }
  ],
  "buffers": [
    {
      "byteLength": 348304,
      "uri": "scene.bin"
    }
  ],
  "images": [
    {
      "uri": "textures/Glass_metallicRoughness.png"
    },
    {
      "uri": "textures/OXXO_BODY_baseColor.png"
    },
    {
      "uri": "textures/OXXO_BODY_metallicRoughness.png"
    },
    {
      "uri": "textures/OXXO_BODY_normal.png"
    },
    {
      "uri": "textures/OXXO_CLEAN_EMISSION_baseColor.png"
    },
    {
      "uri": "textures/OXXO_Emission_baseColor.png"
    },
    {
      "uri": "textures/OXXO_Emission_metallicRoughness.png"
    },
    {
      "uri": "textures/OXXO_Emission_normal.png"
    },
    {
      "uri": "textures/OXXO_NORMAL_baseColor.png"
    }
  ],
  "materials": [
    {
      "alphaMode": "BLEND",
      "doubleSided": true,
      "name": "Glass",
      "pbrMetallicRoughness": {
        "baseColorFactor": [0.8, 0.8, 0.8, 0.4273221701],
        "metallicRoughnessTexture": {
          "index": 0
        },
        "roughnessFactor": 0.2692376679
      }
    },
    {
      "doubleSided": true,
      "name": "OXXO_BODY",
      "normalTexture": {
        "index": 3
      },
      "occlusionTexture": {
        "index": 2
      },
      "pbrMetallicRoughness": {
        "baseColorTexture": {
          "index": 1
        },
        "metallicRoughnessTexture": {
          "index": 2
        }
      }
    },
    {
      "doubleSided": true,
      "emissiveFactor": [1.0, 1.0, 1.0],
      "emissiveTexture": {
        "index": 4
      },
      "name": "OXXO_CLEAN_EMISSION",
      "pbrMetallicRoughness": {
        "baseColorTexture": {
          "index": 4
        },
        "metallicFactor": 0.0,
        "roughnessFactor": 0.6
      }
    },
    {
      "doubleSided": true,
      "emissiveFactor": [1.0, 1.0, 1.0],
      "emissiveTexture": {
        "index": 5
      },
      "name": "OXXO_Emission",
      "normalTexture": {
        "index": 7
      },
      "pbrMetallicRoughness": {
        "baseColorTexture": {
          "index": 5
        },
        "metallicFactor": 0.0,
        "metallicRoughnessTexture": {
          "index": 6
        }
      }
    },
    {
      "doubleSided": true,
      "name": "OXXO_NORMAL",
      "pbrMetallicRoughness": {
        "baseColorTexture": {
          "index": 8
        },
        "metallicFactor": 0.0,
        "roughnessFactor": 0.6
      }
    }
  ],
  "meshes": [
    {
      "name": "Object_0",
      "primitives": [
        {
          "attributes": {
            "NORMAL": 1,
            "POSITION": 0,
            "TANGENT": 2,
            "TEXCOORD_0": 3
          },
          "indices": 4,
          "material": 1,
          "mode": 4
        }
      ]
    },
    {
      "name": "Object_1",
      "primitives": [
        {
          "attributes": {
            "NORMAL": 6,
            "POSITION": 5,
            "TEXCOORD_0": 7
          },
          "indices": 8,
          "material": 4,
          "mode": 4
        }
      ]
    },
    {
      "name": "Object_2",
      "primitives": [
        {
          "attributes": {
            "NORMAL": 10,
            "POSITION": 9,
            "TEXCOORD_0": 11
          },
          "indices": 12,
          "material": 2,
          "mode": 4
        }
      ]
    },
    {
      "name": "Object_3",
      "primitives": [
        {
          "attributes": {
            "NORMAL": 14,
            "POSITION": 13,
            "TANGENT": 15,
            "TEXCOORD_0": 16
          },
          "indices": 17,
          "material": 3,
          "mode": 4
        }
      ]
    },
    {
      "name": "Object_4",
      "primitives": [
        {
          "attributes": {
            "NORMAL": 19,
            "POSITION": 18,
            "TEXCOORD_0": 20
          },
          "indices": 21,
          "material": 0,
          "mode": 4
        }
      ]
    }
  ],
  "nodes": [
    {
      "children": [1],
      "matrix": [
        1.0, 0.0, 0.0, 0.0, 0.0, 2.220446049250313e-16, -1.0, 0.0, 0.0, 1.0,
        2.220446049250313e-16, 0.0, 0.0, 0.0, 0.0, 1.0
      ],
      "name": "Sketchfab_model"
    },
    {
      "children": [2, 3, 4, 5, 6],
      "name": "OXXO_MODEL.obj.cleaner.materialmerger.gles"
    },
    {
      "mesh": 0,
      "name": "Object_2"
    },
    {
      "mesh": 1,
      "name": "Object_3"
    },
    {
      "mesh": 2,
      "name": "Object_4"
    },
    {
      "mesh": 3,
      "name": "Object_5"
    },
    {
      "mesh": 4,
      "name": "Object_6"
    }
  ],
  "samplers": [
    {
      "magFilter": 9728,
      "minFilter": 9986,
      "wrapS": 33648,
      "wrapT": 10497
    },
    {
      "magFilter": 9729,
      "minFilter": 9987,
      "wrapS": 10497,
      "wrapT": 10497
    }
  ],
  "scene": 0,
  "scenes": [
    {
      "name": "Sketchfab_Scene",
      "nodes": [0]
    }
  ],
  "textures": [
    {
      "sampler": 0,
      "source": 0
    },
    {
      "sampler": 1,
      "source": 1
    },
    {
      "sampler": 1,
      "source": 2
    },
    {
      "sampler": 1,
      "source": 3
    },
    {
      "sampler": 1,
      "source": 4
    },
    {
      "sampler": 1,
      "source": 5
    },
    {
      "sampler": 1,
      "source": 6
    },
    {
      "sampler": 1,
      "source": 7
    },
    {
      "sampler": 1,
      "source": 8
    }
  ]
}
