{
  "accessors": [
    {
      "bufferView": 2,
      "componentType": 5126,
      "count": 54884,
      "max": [6614686.0, 3400852.0, 8768503.0],
      "min": [0.0, 0.0, 0.0],
      "type": "VEC3"
    },
    {
      "bufferView": 2,
      "byteOffset": 658608,
      "componentType": 5126,
      "count": 54884,
      "max": [0.9999966621398926, 1.0, 0.9999842047691345],
      "min": [-0.9999989867210388, -1.0, -0.9999979734420776],
      "type": "VEC3"
    },
    {
      "bufferView": 1,
      "componentType": 5126,
      "count": 54884,
      "max": [0.9997559785842896, 0.9997559785842896],
      "min": [0.00024399999529123306, 0.00024399999529123306],
      "type": "VEC2"
    },
    {
      "bufferView": 0,
      "componentType": 5125,
      "count": 108159,
      "type": "SCALAR"
    },
    {
      "bufferView": 2,
      "byteOffset": 1317216,
      "componentType": 5126,
      "count": 47537,
      "max": [6614686.0, 3232536.5, 8768506.0],
      "min": [0.0, 5303.25, 1.5],
      "type": "VEC3"
    },
    {
      "bufferView": 2,
      "byteOffset": 1887660,
      "componentType": 5126,
      "count": 47537,
      "max": [0.9999940395355225, 0.9999989867210388, 0.9999907612800598],
      "min": [-0.9999991655349731, -0.9999984502792358, -0.9999985098838806],
      "type": "VEC3"
    },
    {
      "bufferView": 1,
      "byteOffset": 439072,
      "componentType": 5126,
      "count": 47537,
      "max": [0.9997559785842896, 1.9997559785842896],
      "min": [0.00024399999529123306, 1.0002449750900269],
      "type": "VEC2"
    },
    {
      "bufferView": 0,
      "byteOffset": 432636,
      "componentType": 5125,
      "count": 106146,
      "type": "SCALAR"
    },
    {
      "bufferView": 2,
      "byteOffset": 2458104,
      "componentType": 5126,
      "count": 49068,
      "max": [6566011.0, 3232534.25, 8768506.0],
      "min": [40098.75, 0.0, 1.5],
      "type": "VEC3"
    },
    {
      "bufferView": 2,
      "byteOffset": 3046920,
      "componentType": 5126,
      "count": 49068,
      "max": [0.9999998807907104, 0.9999919533729553, 0.9999992251396179],
      "min": [-0.9999960660934448, -0.9999995827674866, -0.9999935030937195],
      "type": "VEC3"
    },
    {
      "bufferView": 1,
      "byteOffset": 819368,
      "componentType": 5126,
      "count": 49068,
      "max": [1.9997559785842896, 0.9997559785842896],
      "min": [1.0002440214157104, 0.00024399999529123306],
      "type": "VEC2"
    },
    {
      "bufferView": 0,
      "byteOffset": 857220,
      "componentType": 5125,
      "count": 100677,
      "type": "SCALAR"
    },
    {
      "bufferView": 2,
      "byteOffset": 3635736,
      "componentType": 5126,
      "count": 27680,
      "max": [6614686.0, 3232531.5, 8768506.0],
      "min": [0.0, 83707.0, 33396.5],
      "type": "VEC3"
    },
    {
      "bufferView": 2,
      "byteOffset": 3967896,
      "componentType": 5126,
      "count": 27680,
      "max": [0.9999930262565613, 0.9999940991401672, 0.9999688267707825],
      "min": [-0.9999982118606567, -0.9999986290931702, -0.9999880790710449],
      "type": "VEC3"
    },
    {
      "bufferView": 1,
      "byteOffset": 1211912,
      "componentType": 5126,
      "count": 27680,
      "max": [1.9997550249099731, 1.9147950410842896],
      "min": [1.0002440214157104, 1.0002449750900269],
      "type": "VEC2"
    },
    {
      "bufferView": 0,
      "byteOffset": 1259928,
      "componentType": 5125,
      "count": 63864,
      "type": "SCALAR"
    }
  ],
  "asset": {
    "extras": {
      "author": "Miguel Bandera (https://sketchfab.com/miguelbandera)",
      "license": "CC-BY-NC-SA-4.0 (http://creativecommons.org/licenses/by-nc-sa/4.0/)",
      "source": "https://sketchfab.com/3d-models/palace-of-fine-arts-photogrammetry-aerial-5eb98df6ad204542af3054071e3c4883",
      "title": "Palace of Fine Arts photogrammetry  (aerial)"
    },
    "generator": "Sketchfab-12.66.0",
    "version": "2.0"
  },
  "bufferViews": [
    {
      "buffer": 0,
      "byteLength": 1515384,
      "name": "floatBufferViews",
      "target": 34963
    },
    {
      "buffer": 0,
      "byteLength": 1433352,
      "byteOffset": 1515384,
      "byteStride": 8,
      "name": "floatBufferViews",
      "target": 34962
    },
    {
      "buffer": 0,
      "byteLength": 4300056,
      "byteOffset": 2948736,
      "byteStride": 12,
      "name": "floatBufferViews",
      "target": 34962
    }
  ],
  "buffers": [
    {
      "byteLength": 7248792,
      "uri": "scene.bin"
    }
  ],
  "extensionsUsed": ["KHR_materials_unlit"],
  "images": [
    {
      "uri": "textures/2500_palacio_dron_Material_u1_v1_baseColor.jpeg"
    },
    {
      "uri": "textures/2500_palacio_dron_Material_u1_v2_baseColor.jpeg"
    },
    {
      "uri": "textures/2500_palacio_dron_Material_u2_v1_baseColor.jpeg"
    },
    {
      "uri": "textures/2500_palacio_dron_Material_u2_v2_baseColor.jpeg"
    }
  ],
  "materials": [
    {
      "doubleSided": true,
      "extensions": {
        "KHR_materials_unlit": {}
      },
      "name": "2500_palacio_dron_Material_u1_v1",
      "pbrMetallicRoughness": {
        "baseColorTexture": {
          "index": 0
        },
        "metallicFactor": 0.0
      }
    },
    {
      "doubleSided": true,
      "extensions": {
        "KHR_materials_unlit": {}
      },
      "name": "2500_palacio_dron_Material_u1_v2",
      "pbrMetallicRoughness": {
        "baseColorTexture": {
          "index": 1
        },
        "metallicFactor": 0.0
      }
    },
    {
      "doubleSided": true,
      "extensions": {
        "KHR_materials_unlit": {}
      },
      "name": "2500_palacio_dron_Material_u2_v1",
      "pbrMetallicRoughness": {
        "baseColorTexture": {
          "index": 2
        },
        "metallicFactor": 0.0
      }
    },
    {
      "doubleSided": true,
      "extensions": {
        "KHR_materials_unlit": {}
      },
      "name": "2500_palacio_dron_Material_u2_v2",
      "pbrMetallicRoughness": {
        "baseColorTexture": {
          "index": 3
        },
        "metallicFactor": 0.0
      }
    }
  ],
  "meshes": [
    {
      "name": "Object_0",
      "primitives": [
        {
          "attributes": {
            "NORMAL": 1,
            "POSITION": 0,
            "TEXCOORD_0": 2
          },
          "indices": 3,
          "material": 0,
          "mode": 4
        }
      ]
    },
    {
      "name": "Object_1",
      "primitives": [
        {
          "attributes": {
            "NORMAL": 5,
            "POSITION": 4,
            "TEXCOORD_0": 6
          },
          "indices": 7,
          "material": 1,
          "mode": 4
        }
      ]
    },
    {
      "name": "Object_2",
      "primitives": [
        {
          "attributes": {
            "NORMAL": 9,
            "POSITION": 8,
            "TEXCOORD_0": 10
          },
          "indices": 11,
          "material": 2,
          "mode": 4
        }
      ]
    },
    {
      "name": "Object_3",
      "primitives": [
        {
          "attributes": {
            "NORMAL": 13,
            "POSITION": 12,
            "TEXCOORD_0": 14
          },
          "indices": 15,
          "material": 3,
          "mode": 4
        }
      ]
    }
  ],
  "nodes": [
    {
      "children": [1],
      "matrix": [
        1.0, 0.0, 0.0, 0.0, 0.0, -0.9999536275863647, 0.009628126397728698, 0.0, 0.0,
        -0.009628126397728698, -0.9999536275863647, 0.0, 0.0, 59420.61328124941,
        2638686.25, 1.0
      ],
      "name": "Sketchfab_model"
    },
    {
      "children": [2],
      "matrix": [
        1.0, 0.0, 0.0, 0.0, 0.0, 1.0, 0.0, 0.0, 0.0, 0.0, 1.0, 0.0, -3595113.5,
        -2990355.25, -3047810.75, 1.0
      ],
      "name": "skfb_offset"
    },
    {
      "children": [3, 4, 5, 6],
      "name": "Object_2"
    },
    {
      "mesh": 0,
      "name": "Object_3"
    },
    {
      "mesh": 1,
      "name": "Object_4"
    },
    {
      "mesh": 2,
      "name": "Object_5"
    },
    {
      "mesh": 3,
      "name": "Object_6"
    }
  ],
  "samplers": [
    {
      "magFilter": 9729,
      "minFilter": 9987,
      "wrapS": 10497,
      "wrapT": 10497
    }
  ],
  "scene": 0,
  "scenes": [
    {
      "name": "Sketchfab_Scene",
      "nodes": [0]
    }
  ],
  "textures": [
    {
      "sampler": 0,
      "source": 0
    },
    {
      "sampler": 0,
      "source": 1
    },
    {
      "sampler": 0,
      "source": 2
    },
    {
      "sampler": 0,
      "source": 3
    }
  ]
}
